<svg width="35" height="72" viewBox="0 0 35 72" fill="none" xmlns="http://www.w3.org/2000/svg"><g clip-path="url(#clip0)"><path d="M31.646 50.303c.236-.477-.118-.834-.354-1.192-.236-.357-.944-2.026-1.18-2.622a17.187 17.187 0 01-.59-2.146c-.354-1.668-.59-2.622-1.062-5.125-.354-2.503-1.416-3.814-1.535-4.53-.117-.714.119-2.383-.117-4.529-.236-2.145-.236-5.125-.355-7.747-.117-2.622-2.124-2.741-3.068-2.98-.354-.119-2.95-1.192-3.186-1.55-.354-.476-.354-2.502-.472-3.813l.472-.477c.354-.477.826-2.026 1.062-3.218 0 .357-.118.596-.118.953.118-.238.354-.715.354-1.31.118 0 .236-.24.354-.478v.239c-.354 1.31.354-.715.354-.715s.944-1.67.236-3.338c-.118-1.073-.826-2.264-2.36-2.741-.118-.12-.236-.239.236-.239.118 0 .826-2.622-2.242-2.741-3.069-.12-3.305 2.503-2.006 2.86.236.12.117.12 0 .239-.945.358-1.889 1.073-1.889 1.073.118-.12.236-.239.354-.239-.354.477-.708.954-.826 1.55-.236.238-.236.477-.354.715-.354 1.311.118 2.86.708 3.814-.118.715.236 1.311.354 1.669-.118-.239.472 1.668.826 2.145l.472.477c0 1.073-.354 3.099-.708 3.695-.236.358-2.478 1.43-2.832 1.55-1.062.238-2.95.357-3.068 2.98-.118 2.622-.118 5.601-.354 7.747-.236 2.145-.59 3.814-.708 4.529 0 .596-.59 2.026-.944 4.53-.354 2.383-.708 3.456-.944 5.125-.236.953-.354 1.43-.59 2.145-.236.715-1.063 2.265-1.18 2.622-.237.358-.473.715-.355 1.192v1.669s0 .12.236.238c0 0 .118 0 .236.12.118.357.354.238.59.357l.119.238c.118.358.472 0 .708.239.118.238.59.715.826.953l.236.239c.472.477.472.119.472.119l-.118-.239s0-.119-.118-.238l-.472-.477-.472-.715h.354l.118-.477v-.119c.354-.834.118-.715.118-.715s-.118 0-.236.239c-.118 0-.236.119-.354.357s-.118.238-.236.238h.118l.118-.476v-.12c.236-.715.118-.595.118-.595l-.118.238c-.118 0-.118 0-.118.12v-.358c0-.239.59-1.192.708-1.192s.472.834.59 1.31c0 .24-.118.835-.118 1.193 0 .119 0 .357.118.476v.239s.118.119.236-.12c0 0 .118-.119.236-.476.236-.834.354-1.073.354-1.43-.118-.477-.118-1.43-.354-2.265-.472-.834-.472-1.669-.472-1.669 0-1.192 0-1.788.472-3.218.118-.238.118-.477.236-.715.118-.358.236-.596.354-.954.472-1.072.944-2.264 1.416-3.456.708-1.907.944-2.622 1.062-3.934.118-1.072.472-3.575.708-5.244.118.238.354.358.59.596l.354 1.788c.236 1.55 1.18 2.264.944 3.456-.236 1.192-1.416 2.503-1.77 3.218-.354.716-1.18 2.265-1.298 2.98 0 .358-1.062 2.98-1.18 3.338-.354 1.55-.354 3.576 0 6.079.354 2.503 1.18 4.886 1.652 6.913.472 2.026 1.298 4.886 1.416 6.198.236 1.31.118 3.099 0 4.648-.118 1.55-.472 3.576-.354 5.721.236 2.027.472 3.576 1.18 6.675.708 3.1.944 5.245.944 5.96-.118.715-.118.715 0 1.31.118.597.118.954-.354 1.67-.472.834-.826 1.549-1.18 2.383-.236.477-.472.716-.59.954 0 .12 0 .596.472.596 0 0 .236.357.708.238 0 0 .472.477 1.062.12 0 0 .472.476 1.062.119 0 0 .237.238.709.238s.944-.358 1.062-.954c.118-.476.236-.715.236-1.072 0-.358-.354-1.192-.354-2.026 0-1.312.118-1.788.118-2.265 0-.477.118-1.073-.118-1.55-.236-.476-.354-1.55-.354-2.264 0-.716 0-2.98.472-7.748.236-2.503-.118-3.695-.354-5.363-.236-1.67.472-3.457.354-4.887 0-1.43.236-3.695.118-5.96s-.472-3.933-.354-6.198c.118-1.669.236-4.172.236-5.721h.59c0 1.55.118 4.052.236 5.721.118 2.265-.236 3.933-.354 6.198-.118 2.265.236 4.53.118 5.96 0 1.43.59 3.218.354 4.887-.236 1.668-.59 2.741-.354 5.363.354 4.768.472 7.032.472 7.748 0 .715-.118 1.788-.354 2.264-.236.477-.236 1.073-.118 1.55 0 .477.236.834.118 2.264 0 .954-.354 1.67-.354 2.027 0 .357.236.596.236 1.072.118.477.59.954 1.062.954.472 0 .708-.238.708-.238.59.357 1.062-.12 1.062-.12.59.239 1.062-.119 1.062-.119.944.12 1.18-.357 1.18-.357.472 0 .472-.358.472-.596 0-.239-.354-.477-.59-.954a22.299 22.299 0 00-1.18-2.384c-.472-.834-.354-1.192-.354-1.668.118-.596.118-.596 0-1.311-.118-.716.236-2.861.944-5.96.708-3.1 1.062-4.649 1.18-6.675.118-2.026-.236-4.172-.354-5.721-.118-1.55-.118-3.337 0-4.648.236-1.312.944-4.172 1.416-6.198.472-2.027 1.416-4.291 1.652-6.914.354-2.503.354-4.648 0-6.078-.118-.358-1.062-2.98-1.18-3.338-.118-.715-.944-2.264-1.298-2.98-.354-.715-1.534-2.026-1.77-3.218-.236-1.192.708-1.907.944-3.456.118-.477.236-1.192.354-1.67.236-.118.472-.357.708-.476.236 1.669.59 4.172.708 5.125.118 1.312.354 2.146 1.062 3.934.709 1.907 1.652 3.695 2.125 5.125.472 1.43.472 2.026.472 3.218 0 0 0 .715-.236 1.55-.236.834-.236 1.788-.354 2.264-.118.358.118.596.354 1.43.118.239.118.358.236.477.118.239.236.12.236.12v-.239c0-.119.118-.357.118-.477 0-.357-.236-.953-.118-1.191.118-.477.472-1.312.59-1.312s.826.954.708 1.192v.477l-.118-.12c-.118-.357-.236-.476-.236-.476s-.236-.12.118.715c0 .12 0 .239.118.358.118.357.118.477.118.477h.118c-.236 0-.118 0-.236-.239-.118-.238-.236-.357-.354-.357l-.236-.239s-.118-.119.118.715v.12c.118.357.118.476.118.476h.354c-.236.239-.472.596-.472.596s-.236.239-.472.596c-.118.12-.118.12-.118.239-.118.119-.118.238-.118.238s-.118.358.708-.358l.236-.238c.118-.12.59-.715.826-.953.236-.358.59 0 .708-.239l.118-.238c.236-.12.472 0 .59-.358.118 0 .118 0 .236-.119.236-.12.236-.238.236-.238l-.354-1.669z" fill="#FDFDFD"/></g><defs><clipPath id="clip0"><rect width="35" height="72" rx="17.5" fill="#fff"/></clipPath></defs></svg>