<svg width="35" height="72" viewBox="0 0 35 72" fill="none" xmlns="http://www.w3.org/2000/svg"><g clip-path="url(#clip0)"><path d="M34.227 56.782c-.258-1.024-.129-.896 0-1.409.129-.512-.386-1.537-.386-2.562 0-1.794.773-5.638.773-7.431 0-1.794-.387-3.588-.645-4.613-.257-1.025-.257-2.69-.257-3.971 0-1.281-.129-3.203-.258-4.1-.129-.769-.902-3.46-.773-4.612.13-1.153.258-2.178-.515-4.356 0-.129-.129-.257-.129-.385-.258-.768-.902-1.665-1.674-1.922-1.16-.384-1.804-.768-2.32-.896-.514-.128-2.447-1.41-2.962-1.794-.515-.256-2.19-1.41-3.092-1.922-.257-.769-.129-2.434-.129-2.434v-.384c.13-.257.258-.385.258-.641.129-.513.129-1.537.387-2.306 0 .128.128.256.128.256.516 0 .13-.384.516-.64.386-.257.386-.77.386-1.026s-.129-.64.129-1.025c.386-.384.386-.768-.129-.896-.258-.128-.515.128-.644.256.129-.897.258-2.563.386-3.587 0-1.154 0-1.666.258-1.154.258.641.644.385-.129-.768-.773-1.281-2.576-2.306-4.25-2.435-1.675-.128-3.608.257-4.123.513-.386.128-.515-.64-.386-.128 0 .384-.13.512-.387.64-.258.129-.515.513-1.03.77-.645.255-.258.255-.258.64 0 .384-.387.897-.515 1.409-.13.64-.258.384-.13.897 0 .512.258.256.387 1.41.13.512.258 1.28.258 1.921 0-.256-.387-.64-.644-.512-.387.256-.387.512-.129.896.386.513.258.77.258 1.025 0 .257 0 .769.386 1.025.386.256 0 .64.515.64 0 0 .13 0 .13-.127.128.64.128 1.153.128 1.409 0 .128.129.769.386 1.281v.257s0 1.537-.128 2.434c-.902.512-2.448 1.665-3.092 2.05-.644.384-2.448 1.665-2.963 1.793-.515.128-1.16.513-2.319.897-.773.256-1.417 1.153-1.674 1.922 0 .128-.13.256-.13.384-.772 2.178-.643 3.331-.514 4.356.128 1.153-.644 3.844-.773 4.613-.13 1.025-.387 3.075-.258 4.356 0 1.281 0 2.947-.258 3.971-.257 1.025-.644 2.82-.644 4.613 0 1.793.773 5.765.773 7.43 0 1.026-.515 2.179-.386 2.563.129.513.257.385 0 1.41-.258 1.024-.902 2.05-.515 2.562.257.256.644 1.41 1.03 1.665.387.257.644 0 .644 0s.387.257.773.129c.129 0 .258-.129.258-.129s.257.257.644.257c.386 0 .515-.129.644-.385 0 0 .258.128.515 0 .258 0 .387-.128.387-.384v-.128l.128.128h.13c.386.128.257-.769.386-.897s.129-.512 0-.897c-.13-.256-.13-1.025-.258-1.537-.386-.897-1.03-1.794-1.03-2.178 0-.385-.13-.769-.13-1.281 0-.641.258-1.794.258-2.435 0-1.025 1.03-3.843 1.16-6.406.129-1.025-.258-2.818-.258-3.459 0-2.434.515-1.922 1.03-3.843 0-.77.258-1.538.516-2.435.386-1.153.515-2.562.515-3.715.129 3.203 1.16 5.124 1.16 5.124 0 .897-.13 1.794-.13 2.307 0 1.025-1.03 4.356-.772 5.765.258.897.129 2.563-.129 4.228-.129 0-1.546 8.968-1.546 11.53 0 4.229.387 8.2.644 9.738.258 1.665-.129 2.306-.129 3.331 0 .897-.128 2.05.13 2.69.257.641-1.289 3.972-.902 8.072.386 4.1.901 7.303 1.417 10.378.515 3.075.515 3.715.515 4.228 0 .512-.515 1.281-.773 2.946-.129.769-.644 1.666-1.03 2.178-.387.513-1.546 2.05-1.16 2.435.386.128.773 0 .773 0s.386.512.902.128c0 0 .644.512 1.03.128 0 0 .773.769 1.675-.128 0 0 .515.64 1.417.256 1.03-.384.644-1.281.902-1.665.257-.385.128-2.307.257-2.819.13-.641 0-2.306-.129-2.563-.257-.384.13-.768.258-1.921 0-1.025-.386-1.538-.258-2.563.258-2.05.644-3.971 1.031-5.765.258-1.153 1.288-5.894.902-7.56-.258-1.665-.773-2.946-.258-4.355.515-1.41.902-1.922 1.03-3.588.258-1.665 1.675-4.996 1.804-6.277.129-1.025.258-6.79.387-8.712.257 0 .386.128.772.128h.258c0 2.05.258 7.687.387 8.712.128 1.28 1.545 4.868 1.803 6.278.258 1.409.644 2.178 1.03 3.587.516 1.41 0 2.69-.257 4.356-.258 1.665.515 6.278.773 7.43a34.154 34.154 0 011.16 5.894c.128 1.025-.258 1.538-.258 2.563 0 1.025.386 1.537.257 1.922-.257.384-.386 1.921-.129 2.562.13.512 0 2.434.258 2.819.258.384-.129 1.153.902 1.665 1.03.385 1.417-.256 1.417-.256.902.769 1.675.128 1.675.128.515.384 1.03-.128 1.03-.128.515.256.902-.128.902-.128s.257.128.515 0c.515-.385-.644-1.922-.902-2.434-.386-.513-.901-1.41-1.03-2.178-.258-1.666-.773-2.307-.773-2.947 0-.513.129-1.153.644-4.228.515-3.075 1.03-6.278 1.417-10.378.386-4.1-1.16-7.43-.902-8.071.258-.641.129-2.69.129-2.69 0-.898-.386-1.666-.129-3.332.258-1.666.644-5.51.644-9.737 0-2.563-1.288-9.993-1.417-10.122l-.257-1.28c-.258-1.666-.387-3.332-.258-4.357.258-1.41-.644-4.484-.773-5.509v-2.178c0-.897.129-1.41.258-2.05.257-1.281.773-2.819.902-3.587.128-.256.128-.385.128-.64-.257 3.715.13 3.843.258 4.483.129.64.515 1.794.773 2.435.515 1.921 1.03 1.409 1.03 3.843 0 .64-.257 2.563-.257 3.46.129 2.562 1.16 5.38 1.16 6.405 0 .641.386 1.922.257 2.435 0 .64-.129 1.025-.129 1.28 0 .385-.644 1.282-1.03 2.179-.13.384-.13 1.153-.258 1.537a1.09 1.09 0 000 .897c.257.128 0 1.153.386.897h.129l.129-.128v.128c0 .256.129.384.386.384h.516c.128.257.257.385.644.385.386 0 .644-.257.644-.257s.129 0 .257.129c.387.128.773-.129.773-.129s.258.257.644 0c.387-.256.773-1.28 1.031-1.665 0-.512-.644-1.666-.773-2.69z" fill="#FDFDFD"/></g><defs><clipPath id="clip0"><rect width="35" height="72" rx="17.5" fill="#fff"/></clipPath></defs></svg>